<?xml version="1.0" encoding="UTF-8"?>
<!DOCTYPE svg PUBLIC "-//W3C//DTD SVG 1.1//EN" "http://www.w3.org/Graphics/SVG/1.1/DTD/svg11.dtd">
<svg xmlns="http://www.w3.org/2000/svg" version="1.1" width="150px" height="150px" style="shape-rendering:geometricPrecision; text-rendering:geometricPrecision; image-rendering:optimizeQuality; fill-rule:evenodd; clip-rule:evenodd" xmlns:xlink="http://www.w3.org/1999/xlink">
<g><path style="opacity:0.945" fill="#3d4ea9" d="M 59.5,-0.5 C 69.5,-0.5 79.5,-0.5 89.5,-0.5C 100.209,1.73866 110.542,5.40532 120.5,10.5C 123.767,14.766 122.767,17.4327 117.5,18.5C 89.5609,4.06253 61.5609,3.89586 33.5,18C 26.7201,18.7339 25.0534,16.2339 28.5,10.5C 38.458,5.40532 48.7913,1.73866 59.5,-0.5 Z"/></g>
<g><path style="opacity:0.951" fill="#3e4faa" d="M 61.5,17.5 C 94.3857,14.1737 121.219,25.1737 142,50.5C 143.494,56.3356 141.327,58.5022 135.5,57C 115.083,30.9648 88.4161,21.2982 55.5,28C 38.0907,32.7065 24.0907,42.3732 13.5,57C 11.5,57.6667 9.5,57.6667 7.5,57C 6.90316,55.9383 6.56983,54.7716 6.5,53.5C 14.3352,39.7323 25.6686,29.899 40.5,24C 47.4725,21.3469 54.4725,19.1802 61.5,17.5 Z"/></g>
<g><path style="opacity:0.953" fill="#3d4ea9" d="M 99.5,149.5 C 96.8333,149.5 94.1667,149.5 91.5,149.5C 77.8996,144.729 67.0663,136.396 59,124.5C 52.6137,114.015 49.9471,102.682 51,90.5C 55.0243,76.8243 64.1909,70.6576 78.5,72C 92.4648,75.7349 99.2982,84.9016 99,99.5C 107.251,110.632 116.251,111.299 126,101.5C 126.981,99.0402 127.815,96.5402 128.5,94C 123.93,62.9331 105.93,46.0997 74.5,43.5C 50.8944,44.2933 34.061,55.2933 24,76.5C 22.1949,82.3851 21.0282,88.3851 20.5,94.5C 21.5928,104.733 23.4262,114.733 26,124.5C 23.5823,126.68 20.9156,127.013 18,125.5C 12.4105,110.213 11.0772,94.5468 14,78.5C 24.5196,50.8026 44.6863,36.1359 74.5,34.5C 105.003,36.4769 125.169,51.8102 135,80.5C 140.961,105.821 131.127,117.654 105.5,116C 100.588,114.292 96.4212,111.458 93,107.5C 90.5089,101.729 88.8422,95.7292 88,89.5C 80.442,78.7955 71.7753,77.7955 62,86.5C 58.3048,97.6866 59.6381,108.353 66,118.5C 73.7347,130.561 84.568,138.394 98.5,142C 100.837,144.194 101.17,146.694 99.5,149.5 Z"/></g>
<g><path style="opacity:0.952" fill="#3d4ea9" d="M 67.5,53.5 C 96.1513,51.6633 112.818,64.83 117.5,93C 117.414,97.7485 115.08,99.4152 110.5,98C 109.404,81.2505 101.07,69.9171 85.5,64C 65.8934,59.2216 51.3934,65.7216 42,83.5C 38.0799,100.657 41.2465,116.323 51.5,130.5C 54.8827,134.044 58.0494,137.711 61,141.5C 62.5034,146.699 60.67,148.865 55.5,148C 34.1537,128.79 27.3203,105.29 35,77.5C 42.0697,64.2325 52.9031,56.2325 67.5,53.5 Z"/></g>
<g><path style="opacity:0.952" fill="#3e4fa9" d="M 71.5,90.5 C 74.0444,90.1043 76.2111,90.771 78,92.5C 78.2715,103.208 82.4382,112.041 90.5,119C 94.2627,121.548 98.2627,123.548 102.5,125C 109.167,125.333 115.833,125.667 122.5,126C 125.634,131.248 123.967,133.915 117.5,134C 89.4745,135.668 73.4745,122.668 69.5,95C 70.0439,93.415 70.7106,91.915 71.5,90.5 Z"/></g>
</svg>
